<?xml version="1.0" standalone="no"?>
<!DOCTYPE svg PUBLIC "-//W3C//DTD SVG 20010904//EN"
 "http://www.w3.org/TR/2001/REC-SVG-20010904/DTD/svg10.dtd">
<svg version="1.0" xmlns="http://www.w3.org/2000/svg"
 width="1366.000000pt" height="768.000000pt" viewBox="0 0 1366.000000 768.000000"
 preserveAspectRatio="xMidYMid meet">

<g transform="translate(0.000000,768.000000) scale(0.100000,-0.100000)"
fill="#000000" stroke="none">
<path d="M9900 7244 c0 -31 3 -36 20 -31 10 3 21 0 22 -5 2 -6 24 -18 48 -27
25 -9 45 -21 45 -26 0 -6 5 -17 10 -25 13 -20 115 -15 115 5 0 7 15 27 33 45
28 28 36 31 72 25 32 -5 38 -4 28 6 -7 7 -13 18 -13 25 0 22 39 22 107 -2 71
-25 110 -27 105 -6 -1 8 2 11 7 8 5 -4 12 -2 15 3 4 5 -3 12 -14 16 -11 3 -20
11 -20 16 0 5 -117 9 -290 9 l-290 0 0 -36z"/>
<path d="M10630 7260 c6 -11 15 -20 20 -20 6 0 0 -10 -12 -22 l-21 -21 21 -8
c12 -5 22 -15 22 -23 0 -15 21 -26 50 -26 10 0 21 -6 24 -12 3 -7 3 -3 0 10
-3 13 -1 29 6 37 9 11 7 12 -10 8 -11 -3 -23 -9 -26 -14 -7 -12 -24 -11 -24 1
0 6 7 10 15 10 8 0 14 8 13 18 -3 45 1 51 45 54 l42 4 -28 12 c-16 7 -55 12
-88 12 -57 0 -59 -1 -49 -20z"/>
<path d="M11026 7267 c3 -10 9 -15 12 -12 3 3 0 11 -7 18 -10 9 -11 8 -5 -6z"/>
<path d="M11090 7266 c0 -19 26 -40 35 -26 3 5 1 10 -4 10 -6 0 -11 7 -11 15
0 8 -4 15 -10 15 -5 0 -10 -6 -10 -14z"/>
<path d="M11176 7265 c4 -8 1 -22 -6 -29 -16 -20 -18 -121 -3 -135 13 -12 28
2 18 18 -3 5 6 18 19 28 28 23 38 91 17 117 -18 21 -53 22 -45 1z"/>
<path d="M11366 7264 c-11 -28 -6 -54 9 -54 8 0 15 7 15 15 0 8 7 15 16 15 8
0 13 -4 10 -9 -6 -10 22 -25 41 -22 18 3 7 -39 -14 -55 -16 -13 -12 -14 32 -8
28 4 56 7 63 7 8 0 12 20 12 64 l0 63 -89 0 c-72 0 -90 -3 -95 -16z"/>
<path d="M250 6910 l0 -360 1724 0 c1529 1 1725 2 1737 16 7 8 18 13 25 10 7
-3 11 0 8 7 -2 7 9 25 25 41 l29 28 28 -51 27 -51 144 0 c140 0 144 1 138 20
-8 26 3 60 20 60 24 0 23 25 -3 52 l-25 27 31 33 c35 35 38 43 20 54 -9 6 -5
10 12 14 18 4 26 14 30 35 7 42 30 44 31 3 1 -18 3 -25 6 -15 2 9 9 17 15 17
5 0 8 -7 4 -15 -3 -9 0 -15 10 -15 10 0 14 6 10 15 -4 11 3 19 20 25 37 15 47
4 40 -44 -6 -39 -4 -44 19 -54 14 -7 32 -12 39 -12 7 0 23 -12 37 -26 13 -14
38 -32 55 -39 26 -10 32 -20 38 -54 13 -83 6 -81 223 -81 l193 0 0 360 0 360
-2355 0 -2355 0 0 -360z m663 183 c22 -15 47 -39 56 -53 12 -19 8 -17 -16 8
-81 84 -213 83 -302 -1 -22 -21 -30 -25 -23 -12 47 92 195 122 285 58z m3735
-30 c-10 -2 -26 -2 -35 0 -10 3 -2 5 17 5 19 0 27 -2 18 -5z m-38 -36 c0 -2
-9 -15 -21 -28 -13 -15 -16 -25 -9 -27 6 -2 18 4 25 14 17 23 19 11 4 -18 -8
-16 -8 -22 2 -29 10 -6 10 -11 -1 -24 -13 -16 -15 -16 -21 2 -7 16 -8 16 -8
-4 -1 -12 -5 -24 -9 -27 -13 -8 -53 5 -47 15 3 4 13 6 23 3 16 -5 16 -5 0 9
-22 18 -23 37 -2 37 10 0 14 6 10 15 -3 9 6 25 22 40 26 25 32 28 32 22z
m-3934 -34 c-10 -10 -19 5 -10 18 6 11 8 11 12 0 2 -7 1 -15 -2 -18z m3820
-44 c-12 -18 -16 -20 -16 -7 0 29 12 50 22 40 7 -7 5 -18 -6 -33z m-3292 5
c18 -7 21 -35 6 -50 -8 -8 -6 -15 4 -23 27 -22 2 -51 -43 -51 l-39 0 -4 65 -3
65 32 0 c17 0 38 -3 47 -6z m66 -59 c0 -37 -4 -65 -10 -65 -6 0 -10 28 -10 65
0 37 4 65 10 65 6 0 10 -28 10 -65z m822 43 c2 -17 10 -23 28 -23 22 0 26 -5
31 -42 4 -32 2 -43 -8 -43 -8 0 -13 13 -13 35 0 24 -5 35 -15 35 -16 0 -31
-43 -20 -59 3 -6 -1 -11 -9 -11 -13 0 -16 13 -16 65 0 62 15 91 22 43z m623
-43 c0 -45 -4 -65 -12 -65 -9 0 -13 20 -13 65 0 45 4 65 13 65 8 0 12 -20 12
-65z m391 28 c0 -18 3 -36 7 -39 13 -13 7 -42 -9 -48 -9 -3 -31 -6 -50 -6
l-34 0 0 66 0 65 43 -3 c40 -3 42 -5 43 -35z m555 2 c30 -44 39 -44 39 0 0 19
5 35 10 35 6 0 10 -28 10 -65 0 -36 -3 -65 -6 -65 -4 0 -24 19 -45 43 l-38 42
-1 -42 c0 -68 -18 -50 -22 22 -2 55 0 65 13 65 9 0 27 -16 40 -35z m309 16 c0
-13 8 -21 23 -23 18 -2 23 -11 28 -45 4 -32 2 -43 -8 -43 -8 0 -13 13 -13 36
0 28 -3 35 -17 32 -12 -2 -19 -14 -21 -36 -6 -58 -22 -34 -22 33 0 51 3 65 15
65 8 0 15 -9 15 -19z m310 -21 c0 -22 -4 -40 -10 -40 -5 0 -10 4 -10 9 0 5 -3
23 -6 40 -5 24 -3 31 10 31 12 0 16 -10 16 -40z m-3613 8 c27 -25 29 -38 8
-38 -25 0 -17 -17 15 -30 43 -18 45 -27 4 -25 -45 3 -51 10 -59 68 -8 52 -2
57 32 25z m941 -25 c-6 -7 -8 -26 -6 -43 4 -29 -5 -40 -17 -20 -24 39 -7 112
20 87 9 -8 10 -16 3 -24z m931 9 c-14 -5 -11 -70 4 -76 6 -3 3 -5 -8 -3 -15 2
-21 12 -26 42 -8 46 5 71 26 52 7 -7 9 -13 4 -15z m2112 -8 c-11 -15 -21 -23
-21 -18 0 14 31 56 37 50 3 -3 -4 -17 -16 -32z m-3801 17 c0 -12 -20 -25 -27
-18 -7 7 6 27 18 27 5 0 9 -4 9 -9z m482 -38 c2 -26 8 -38 18 -38 10 0 16 12
18 38 2 20 8 37 13 37 6 0 9 -19 7 -42 -3 -42 -4 -43 -38 -43 -34 0 -35 1 -38
43 -2 23 1 42 7 42 5 0 11 -17 13 -37z m156 25 c22 -22 13 -38 -19 -38 -33 0
-31 -15 5 -31 19 -8 18 -8 -8 -6 -38 3 -54 27 -38 61 12 28 40 34 60 14z m220
0 c20 -20 14 -38 -13 -38 -29 0 -33 -15 -7 -29 23 -14 -3 -14 -29 -1 -34 19
-19 80 21 80 9 0 21 -5 28 -12z m113 -35 c4 -32 2 -43 -8 -43 -7 0 -13 9 -13
20 0 11 -7 20 -15 20 -18 0 -20 -26 -2 -33 6 -3 2 -6 -11 -6 -40 -2 -25 29 27
56 1 1 0 7 -4 13 -5 8 -11 8 -21 -1 -16 -14 -30 -6 -19 11 4 6 19 10 33 8 23
-3 28 -9 33 -45z m167 0 c2 -26 -1 -43 -7 -43 -6 0 -11 16 -11 36 0 28 -3 35
-17 32 -12 -2 -19 -14 -21 -36 -4 -43 -22 -41 -22 3 0 24 -5 35 -15 35 -14 0
-20 -24 -16 -57 1 -7 -5 -13 -14 -13 -11 0 -15 10 -15 38 0 21 3 42 6 45 4 4
34 6 68 4 l61 -2 3 -42z m273 1 l5 -42 -38 0 c-31 -1 -38 3 -38 18 0 13 9 22
25 26 27 7 32 18 14 30 -6 3 -15 0 -20 -7 -4 -7 -11 -10 -14 -7 -13 13 7 29
33 26 23 -3 28 -9 33 -44z m85 34 c5 -7 2 -9 -8 -5 -26 10 -31 -6 -7 -24 28
-21 19 -49 -16 -49 -14 0 -25 4 -25 9 0 5 9 7 20 4 27 -7 26 11 -2 29 -14 9
-19 20 -15 31 7 19 42 23 53 5z m129 2 c3 -5 -3 -10 -14 -10 -27 0 -27 -16 0
-23 33 -9 20 -42 -16 -44 -20 -1 -23 0 -7 4 28 6 28 17 0 35 -14 9 -19 20 -15
31 7 19 42 23 52 7z m179 -6 c9 -8 16 -20 16 -26 0 -18 -32 -48 -51 -48 -21 0
-49 26 -49 45 0 20 28 45 50 45 10 0 26 -7 34 -16z m165 -3 c12 -22 5 -31 -26
-31 -29 0 -30 -18 0 -30 21 -8 21 -9 2 -9 -27 -1 -45 17 -45 44 0 43 50 62 69
26z m119 -28 c3 -34 0 -43 -13 -43 -9 0 -13 5 -10 11 11 16 -4 59 -20 59 -10
0 -15 -11 -15 -35 0 -21 -5 -35 -12 -35 -9 0 -12 14 -11 42 1 24 2 44 2 45 1
0 18 0 39 0 36 -2 37 -3 40 -44z m270 35 c7 -7 12 -26 12 -44 0 -30 -2 -32
-37 -31 -47 2 -53 21 -12 42 22 12 28 20 21 27 -8 8 -16 7 -27 -2 -8 -7 -15
-8 -15 -3 0 24 38 31 58 11z m102 1 c0 -5 -6 -9 -14 -9 -15 0 -26 -21 -26 -51
0 -10 -4 -19 -10 -19 -5 0 -10 20 -10 43 0 42 1 44 30 45 17 0 30 -4 30 -9z
m95 -5 c26 -27 3 -73 -37 -74 -20 0 -48 26 -48 45 0 20 28 45 50 45 10 0 26
-7 35 -16z m113 4 c18 -15 16 -78 -3 -78 -10 0 -15 11 -15 35 0 23 -5 35 -14
35 -15 0 -30 -45 -21 -60 4 -6 -1 -10 -9 -10 -12 0 -16 10 -16 38 0 21 2 41 5
44 10 9 59 6 73 -4z m300 0 c7 -7 12 -26 12 -44 0 -31 -2 -32 -37 -31 -37 2
-54 25 -25 35 7 2 10 -2 6 -12 -4 -10 -1 -16 9 -16 10 0 15 10 15 35 0 34 -10
45 -23 25 -3 -5 -11 -10 -17 -10 -7 0 -6 6 2 15 15 18 42 19 58 3z m92 2 c0
-5 -10 -10 -22 -10 -22 -1 -22 -1 5 -21 22 -17 25 -24 16 -35 -13 -16 -45 -19
-53 -5 -4 5 3 7 14 4 26 -7 26 13 0 27 -22 12 -27 36 -7 43 21 9 47 7 47 -3z
m224 -6 c9 -8 16 -22 16 -29 0 -20 -28 -45 -50 -45 -22 0 -50 25 -50 45 0 20
28 45 50 45 10 0 26 -7 34 -16z m96 6 c0 -4 -7 -10 -15 -14 -9 -3 -15 -18 -15
-36 0 -20 -5 -30 -15 -30 -11 0 -14 10 -11 43 2 23 4 43 5 43 4 6 51 0 51 -6z
m-3563 -112 c42 -44 75 -58 140 -58 72 0 113 23 153 87 17 26 30 40 30 32 0
-32 -55 -100 -98 -120 -76 -37 -183 -20 -233 37 -27 31 -49 81 -48 111 0 24 2
21 14 -16 7 -24 26 -57 42 -73z m3843 64 c0 -10 -4 -10 -19 0 -15 9 -17 15 -9
26 9 10 13 11 19 0 5 -7 9 -19 9 -26z m-3765 18 c3 -5 1 -10 -4 -10 -6 0 -11
5 -11 10 0 6 2 10 4 10 3 0 8 -4 11 -10z m3879 -35 c-4 -8 -10 -15 -15 -15 -5
0 -9 7 -9 15 0 8 7 15 15 15 9 0 12 -6 9 -15z m-64 -9 c0 -3 -4 -8 -10 -11 -5
-3 -10 -1 -10 4 0 6 5 11 10 11 6 0 10 -2 10 -4z m-16 -60 c-5 -14 -8 -13 -20
10 -20 38 -17 52 6 28 13 -13 18 -27 14 -38z m41 -5 c5 -44 11 -48 36 -25 l22
19 -13 -25 c-7 -14 -14 -26 -15 -28 -1 -1 -14 3 -29 9 -27 13 -35 34 -13 42 9
3 7 9 -6 24 -9 11 -14 23 -10 26 11 12 23 -7 28 -42z m25 14 c0 -5 -5 -3 -10
5 -5 8 -10 20 -10 25 0 6 5 3 10 -5 5 -8 10 -19 10 -25z m-3865 -4 c-9 -16
-25 -3 -18 15 4 10 9 12 15 6 6 -6 7 -15 3 -21z m3994 -32 c13 -22 13 -23 -2
-11 -9 8 -21 11 -27 7 -6 -4 -10 8 -10 32 0 35 1 36 13 17 6 -12 18 -32 26
-45z m-1374 1 c3 -5 2 -10 -4 -10 -5 0 -13 5 -16 10 -3 6 -2 10 4 10 5 0 13
-4 16 -10z m-97 -25 c3 -3 -231 -4 -519 -3 -288 1 -470 5 -404 8 145 7 915 3
923 -5z m240 -15 c38 0 41 -13 8 -43 -55 -51 -52 -50 -106 -20 -59 33 -71 53
-32 53 15 0 34 5 42 10 8 6 24 8 35 5 11 -2 35 -5 53 -5z m22 -89 c0 -14 -6
-19 -20 -18 -25 2 -26 13 -2 26 23 14 22 14 22 -8z m87 -22 c17 -17 5 -43 -13
-28 -15 12 -19 39 -6 39 4 0 13 -5 19 -11z"/>
<path d="M1150 6919 c0 -25 33 -22 38 4 2 12 -3 17 -17 17 -15 0 -21 -6 -21
-21z"/>
<path d="M1157 6883 c-15 -14 -7 -43 12 -43 26 0 36 17 21 35 -14 16 -23 19
-33 8z"/>
<path d="M3046 6925 c-7 -20 23 -33 34 -14 5 7 6 17 4 21 -9 13 -32 9 -38 -7z"/>
<path d="M3044 6875 c-4 -9 -2 -21 4 -27 15 -15 44 -1 40 19 -4 23 -36 29 -44
8z"/>
<path d="M1450 6900 c-12 -8 -12 -10 3 -16 21 -8 35 2 21 16 -5 5 -15 6 -24 0z"/>
<path d="M1670 6900 c-12 -8 -12 -10 3 -16 21 -8 35 2 21 16 -5 5 -15 6 -24 0z"/>
<path d="M2210 6854 c0 -9 5 -14 12 -12 18 6 21 28 4 28 -9 0 -16 -7 -16 -16z"/>
<path d="M2593 6884 c-7 -19 20 -49 36 -40 6 4 11 18 11 32 0 17 -5 24 -20 24
-11 0 -23 -7 -27 -16z"/>
<path d="M2776 6903 c-11 -11 -6 -23 8 -23 8 0 17 4 20 9 7 10 -19 23 -28 14z"/>
<path d="M3165 6859 c-10 -15 1 -23 20 -15 9 3 13 10 10 16 -8 13 -22 13 -30
-1z"/>
<path d="M3343 6884 c-3 -8 2 -23 11 -32 16 -16 18 -16 31 1 7 11 11 25 8 33
-7 19 -42 18 -50 -2z"/>
<path d="M4077 6886 c-7 -19 17 -51 31 -42 20 12 15 56 -7 56 -10 0 -21 -6
-24 -14z"/>
<path d="M11310 7214 c0 -10 -6 -14 -15 -11 -17 7 -30 -9 -15 -18 14 -9 50 13
50 30 0 8 -4 15 -10 15 -5 0 -10 -7 -10 -16z"/>
<path d="M11088 7203 c6 -2 18 -2 25 0 6 3 1 5 -13 5 -14 0 -19 -2 -12 -5z"/>
<path d="M10596 7168 c5 -7 9 -16 9 -20 0 -3 4 -10 9 -15 5 -4 6 -3 3 4 -4 6
-1 13 5 15 8 3 4 10 -11 17 -19 11 -22 11 -15 -1z"/>
<path d="M11027 7157 c-21 -26 -21 -29 3 -54 15 -17 17 -27 10 -52 -10 -34 -6
-38 16 -16 9 8 31 15 49 15 19 0 37 6 41 13 4 6 4 9 -1 5 -10 -9 -35 16 -35
35 0 10 -7 13 -19 10 -11 -3 -21 2 -25 12 -4 13 -2 16 9 11 8 -3 15 -1 15 4 0
6 -4 10 -9 10 -5 0 -16 6 -23 14 -12 12 -17 10 -31 -7z"/>
<path d="M11265 7161 l-20 -8 20 -5 c16 -5 14 -6 -7 -7 -46 -2 -77 -71 -32
-71 8 0 14 7 14 15 0 19 42 37 95 40 82 4 85 5 85 22 0 13 -3 14 -12 5 -17
-17 -74 -15 -92 3 -16 17 -22 17 -51 6z m-25 -45 c0 -2 -8 -10 -17 -17 -16
-13 -17 -12 -4 4 13 16 21 21 21 13z"/>
<path d="M11100 7142 c0 -4 10 -9 22 -9 18 -2 20 0 8 7 -18 12 -30 13 -30 2z"/>
<path d="M5440 6865 l0 -265 170 0 170 0 0 45 0 45 -120 0 -120 0 0 220 0 220
-50 0 -50 0 0 -265z"/>
<path d="M11505 7109 c-45 -21 -38 -25 12 -7 18 7 33 16 33 20 0 4 -1 8 -2 7
-2 0 -21 -9 -43 -20z"/>
<path d="M10555 7110 c-3 -5 2 -10 12 -10 11 0 25 -6 32 -12 11 -10 12 -10 7
-1 -11 20 -44 35 -51 23z"/>
<path d="M10985 7060 c-3 -5 -1 -10 4 -10 6 0 11 5 11 10 0 6 -2 10 -4 10 -3
0 -8 -4 -11 -10z"/>
<path d="M11333 7058 c-41 -9 -56 -29 -33 -43 6 -3 10 -2 10 4 0 6 12 14 28
17 32 8 74 35 52 33 -8 -1 -34 -5 -57 -11z"/>
<path d="M6969 7030 c-11 -29 -12 -30 -62 -24 -70 8 -130 -9 -161 -47 -21 -25
-26 -41 -26 -86 0 -47 4 -58 30 -85 34 -33 36 -38 17 -38 -21 0 -47 -34 -47
-61 0 -14 7 -34 15 -46 15 -21 14 -23 -14 -37 -31 -17 -41 -34 -41 -72 0 -63
48 -94 159 -101 138 -9 219 32 227 117 9 89 -42 130 -161 130 -78 0 -99 8 -93
36 3 16 15 20 70 25 77 6 114 27 134 74 18 44 18 69 -1 106 -15 29 -15 31 10
60 38 46 35 60 -18 73 -25 6 -29 3 -38 -24z m-57 -107 c21 -19 25 -82 6 -101
-17 -17 -68 -15 -90 5 -24 21 -23 68 2 93 24 24 57 26 82 3z m47 -348 c21 -20
4 -52 -35 -65 -53 -18 -120 -5 -141 27 -16 25 -16 26 7 45 20 16 33 18 89 13
36 -4 72 -13 80 -20z"/>
<path d="M5957 6996 c-79 -29 -117 -92 -117 -196 0 -112 43 -174 139 -200 79
-21 163 3 208 60 18 22 16 28 -19 50 l-31 19 -29 -25 c-43 -35 -100 -33 -139
5 -16 16 -29 39 -29 50 0 19 7 21 133 23 l132 3 -2 58 c-3 75 -26 116 -83 145
-50 25 -106 28 -163 8z m132 -92 c12 -15 21 -35 21 -45 0 -17 -9 -19 -86 -19
-84 0 -85 0 -79 23 21 68 104 92 144 41z"/>
<path d="M6367 6996 c-21 -8 -48 -22 -60 -32 -12 -11 -24 -20 -26 -21 -2 -1 7
-18 19 -37 l22 -36 33 26 c58 44 145 41 145 -5 0 -28 -18 -38 -98 -56 -95 -22
-132 -55 -132 -117 0 -62 29 -104 80 -118 53 -14 98 -5 132 28 l28 25 21 -27
c18 -23 27 -27 68 -24 45 3 46 4 49 40 3 32 0 37 -20 40 -22 3 -23 7 -28 129
-4 108 -8 130 -25 149 -43 48 -131 63 -208 36z m133 -241 c0 -56 -25 -85 -73
-85 -40 0 -57 15 -57 51 0 33 14 45 69 58 23 5 45 12 48 15 11 11 13 6 13 -39z"/>
<path d="M7702 6998 c-42 -14 -98 -77 -111 -125 -30 -106 8 -216 88 -257 88
-46 223 -18 261 54 8 15 4 22 -24 40 l-34 21 -26 -26 c-53 -53 -166 -20 -166
50 l0 25 130 0 130 0 0 52 c0 65 -29 127 -71 152 -37 22 -131 29 -177 14z
m128 -88 c11 -11 20 -31 20 -45 0 -25 -1 -25 -80 -25 -74 0 -80 2 -80 20 0 58
97 93 140 50z"/>
<path d="M11136 7001 c-5 -8 -150 -11 -497 -11 -473 0 -489 -1 -489 -19 0 -18
-3 -18 -47 -7 -43 11 -48 10 -69 -11 -13 -13 -35 -23 -51 -23 -43 0 -73 -11
-73 -26 0 -18 -4 -18 86 11 42 14 94 25 115 25 l39 0 0 -320 0 -320 620 0 620
0 1 63 c0 34 0 134 0 221 0 88 5 168 10 178 10 18 12 17 40 -7 35 -29 42 -30
59 -10 7 8 19 15 26 15 8 0 14 5 14 11 0 6 -7 9 -14 6 -10 -4 -13 -1 -10 7 8
20 -14 30 -32 15 -14 -11 -13 -14 6 -21 12 -4 18 -13 15 -19 -9 -13 -54 -3
-77 18 -9 8 -22 12 -27 8 -8 -4 -11 27 -11 99 l0 106 -82 1 c-46 1 -98 1 -117
0 -18 -2 -37 3 -41 9 -5 9 -9 9 -14 1z m-339 -173 c-3 -7 -5 -2 -5 12 0 14 2
19 5 13 2 -7 2 -19 0 -25z m-244 7 c-3 -9 -8 -14 -10 -11 -3 3 -2 9 2 15 9 16
15 13 8 -4z m162 5 c3 -6 -1 -7 -9 -4 -18 7 -21 14 -7 14 6 0 13 -4 16 -10z
m275 -5 c0 -8 -4 -15 -10 -15 -5 0 -7 7 -4 15 4 8 8 15 10 15 2 0 4 -7 4 -15z
m-360 -149 c0 -7 -40 -14 -44 -7 -3 4 6 8 20 9 13 1 24 0 24 -2z m350 -6 c0
-5 -5 -10 -11 -10 -5 0 -7 5 -4 10 3 6 8 10 11 10 2 0 4 -4 4 -10z m-140 -71
c0 -11 -4 -18 -10 -14 -5 3 -7 12 -3 20 7 21 13 19 13 -6z m-50 -150 c0 -19
-5 -20 -102 -18 -143 4 -208 10 -208 19 0 13 36 17 178 19 127 1 132 0 132
-20z"/>
<path d="M7131 6853 c0 -88 5 -162 12 -182 18 -52 58 -76 123 -75 48 0 58 4
89 34 l35 34 0 -32 c0 -32 0 -32 50 -32 l50 0 0 200 0 200 -49 0 -49 0 -3
-129 c-4 -113 -7 -133 -25 -158 -16 -21 -31 -29 -62 -31 -64 -5 -72 15 -72
180 l0 138 -50 0 -50 0 1 -147z"/>
<path d="M8040 6700 c-24 -24 -25 -48 -4 -78 31 -45 114 -19 114 36 0 29 -34
62 -65 62 -14 0 -34 -9 -45 -20z"/>
<path d="M11420 6396 c0 -8 51 -56 59 -56 4 0 20 -11 35 -25 33 -30 36 -31 36
-5 0 15 -9 22 -30 27 -17 3 -36 13 -43 22 -12 16 -57 45 -57 37z"/>
<path d="M11536 6183 c-4 -16 -9 -36 -12 -45 -4 -12 0 -18 10 -18 12 0 16 11
16 45 0 51 -5 57 -14 18z"/>
<path d="M5500 5935 l0 -265 148 0 c123 0 154 4 189 20 55 24 83 70 83 133 0
59 -22 99 -66 123 l-33 18 30 33 c53 61 34 159 -38 189 -22 10 -77 14 -173 14
l-140 0 0 -265z m264 169 c9 -8 16 -31 16 -49 0 -48 -29 -65 -107 -65 l-63 0
0 65 0 65 69 0 c50 0 74 -4 85 -16z m23 -209 c47 -33 36 -115 -19 -134 -17 -6
-60 -11 -94 -11 l-64 0 0 80 0 80 78 0 c52 0 84 -5 99 -15z"/>
<path d="M6995 6163 c-63 -12 -64 -12 -67 -51 -3 -34 -6 -37 -36 -40 -32 -3
-33 -5 -30 -40 3 -34 6 -37 36 -40 l32 -3 0 -119 c0 -69 5 -130 12 -144 23
-51 95 -76 166 -56 45 11 48 19 31 67 -10 29 -12 30 -40 20 -55 -21 -64 -5
-67 122 l-3 111 56 0 55 0 0 40 0 40 -55 0 -55 0 0 44 c0 48 -4 54 -35 49z"/>
<path d="M9923 6133 c-18 -7 -16 -30 2 -37 11 -4 15 1 15 19 0 14 -1 25 -2 24
-2 0 -9 -3 -15 -6z"/>
<path d="M6087 6066 c-21 -8 -48 -22 -60 -32 -12 -11 -24 -20 -26 -21 -2 -1 7
-18 19 -37 l22 -36 33 26 c58 44 145 41 145 -5 0 -28 -18 -38 -98 -56 -95 -22
-132 -55 -132 -117 0 -62 29 -104 80 -118 53 -14 98 -5 132 28 l28 25 21 -27
c18 -23 27 -27 68 -24 45 3 46 4 49 40 3 32 0 37 -20 40 -22 3 -23 7 -28 129
-4 108 -8 130 -25 149 -43 48 -131 63 -208 36z m133 -241 c0 -56 -25 -85 -73
-85 -40 0 -57 15 -57 51 0 33 14 45 69 58 23 5 45 12 48 15 11 11 13 6 13 -39z"/>
<path d="M6605 6067 c-17 -8 -36 -21 -44 -30 -19 -24 -31 -21 -31 8 0 23 -4
25 -45 25 l-45 0 0 -200 0 -200 50 0 50 0 0 125 c0 167 14 195 95 195 57 0 65
-23 65 -182 l0 -138 50 0 50 0 -1 148 c0 161 -9 204 -50 235 -34 24 -105 31
-144 14z"/>
<path d="M7322 6068 c-42 -14 -98 -77 -111 -125 -30 -106 8 -216 88 -257 88
-46 223 -18 261 54 8 15 4 22 -24 40 l-34 21 -26 -26 c-53 -53 -166 -20 -166
50 l0 25 130 0 130 0 0 52 c0 65 -29 127 -71 152 -37 22 -131 29 -177 14z
m128 -88 c11 -11 20 -31 20 -45 0 -25 -1 -25 -80 -25 -74 0 -80 2 -80 20 0 58
97 93 140 50z"/>
<path d="M7833 6073 c-12 -2 -34 -18 -48 -34 l-25 -31 0 31 c0 30 -1 31 -50
31 l-50 0 0 -200 0 -200 50 0 50 0 0 120 c0 164 14 190 100 190 36 0 38 1 44
41 4 23 5 43 4 44 -8 6 -56 11 -75 8z"/>
<path d="M10080 6035 c7 -9 15 -13 17 -11 7 7 -7 26 -19 26 -6 0 -6 -6 2 -15z"/>
<path d="M11505 5990 c34 -35 36 -40 19 -45 -10 -4 -29 -11 -42 -16 -13 -5
-27 -7 -32 -4 -4 3 -10 -2 -14 -10 -6 -18 -43 -20 -48 -3 -7 19 -37 17 -43 -3
-4 -10 -12 -19 -18 -19 -18 -1 -49 -67 -34 -74 7 -3 2 -3 -10 -1 -14 4 -26 -1
-36 -15 -14 -21 -16 -21 -25 -3 -9 14 -13 16 -23 6 -7 -7 -30 -13 -51 -13 -40
0 -137 -38 -138 -54 0 -4 6 -6 14 -3 10 4 14 0 13 -14 -1 -10 -9 -21 -19 -25
-21 -6 -34 -42 -19 -57 7 -7 14 -2 22 16 13 30 38 42 53 27 14 -14 42 -13 76
5 16 8 35 12 44 9 25 -9 48 -54 42 -79 -5 -20 -17 -26 -79 -39 -146 -30 -146
-30 -153 1 -10 48 -11 49 -22 22 -8 -21 -21 -28 -69 -38 -73 -15 -147 -18
-243 -8 l-75 7 40 -20 c22 -11 47 -20 56 -20 9 0 22 -7 29 -15 11 -13 -35 -15
-404 -15 l-416 0 0 -65 0 -65 95 0 c104 0 111 -4 97 -54 -12 -44 -49 -50 -112
-20 -59 29 -70 30 -70 6 0 -10 18 -27 45 -41 25 -13 45 -30 45 -38 0 -7 21
-23 46 -33 41 -18 45 -23 40 -45 -3 -13 -16 -40 -29 -58 l-23 -33 -49 17 c-67
23 -72 23 -79 -7 -9 -33 13 -59 60 -74 19 -7 34 -18 34 -26 0 -8 8 -14 17 -14
28 0 -7 -30 -43 -35 -24 -4 -26 -3 -11 5 29 18 19 29 -18 17 -27 -8 -35 -16
-35 -34 0 -16 4 -22 11 -17 7 4 25 8 40 9 77 4 78 5 73 20 -4 8 -1 15 4 15 18
0 25 -20 12 -35 -13 -16 -6 -21 43 -30 21 -4 37 -13 37 -21 0 -19 -66 -29 -98
-14 -44 20 -115 39 -124 34 -4 -3 -8 -93 -8 -200 l0 -194 825 0 825 0 0 765 0
765 -32 20 c-51 31 -56 24 -13 -20z m-375 -219 c0 -5 -9 -11 -21 -14 -16 -4
-18 -3 -8 9 13 16 29 19 29 5z m17 -13 c-3 -8 -6 -5 -6 6 -1 11 2 17 5 13 3
-3 4 -12 1 -19z m33 -3 c-7 -9 -15 -13 -18 -10 -3 2 1 11 8 20 7 9 15 13 18
10 3 -2 -1 -11 -8 -20z m101 -18 c-5 -5 -17 -7 -26 -3 -14 5 -15 9 -5 21 10
12 16 13 27 4 9 -8 10 -16 4 -22z m-135 -8 c8 -14 -14 -29 -43 -29 -22 0 -31
19 -16 33 10 11 51 8 59 -4z m-71 -230 c11 -4 -49 -8 -139 -8 -98 -1 -156 3
-150 8 5 5 23 12 39 14 41 6 225 -4 250 -14z m-655 -73 c0 -26 5 -46 13 -49 6
-3 0 -6 -15 -6 -26 -1 -28 2 -28 42 0 24 3 47 7 50 15 16 23 4 23 -37z m105
-6 c0 -45 0 -45 -37 -48 l-38 -3 0 44 c0 52 5 59 45 55 29 -3 30 -5 30 -48z
m41 28 l7 -23 8 23 c11 30 27 28 36 -5 l6 -28 10 28 c9 27 27 38 27 16 0 -7
-5 -29 -12 -50 -11 -39 -31 -51 -42 -26 -5 10 -7 10 -12 0 -11 -25 -31 -13
-42 26 -7 21 -12 43 -12 50 0 20 18 12 26 -11z m212 -30 l2 -48 -35 0 -35 0 0
51 0 50 33 -3 c31 -3 32 -5 35 -50z m40 3 c4 -52 22 -44 22 10 0 40 20 56 21
17 l0 -23 10 23 c7 19 15 23 41 20 32 -3 33 -4 32 -48 0 -43 -2 -45 -31 -48
-26 -3 -33 1 -41 25 l-10 28 -1 -27 c-1 -25 -5 -28 -36 -28 l-35 0 0 51 c0 63
23 64 28 0z m202 33 c0 -13 -3 -14 -13 -5 -8 6 -17 8 -20 4 -11 -10 -8 -61 3
-68 6 -4 10 5 10 19 0 19 5 26 20 26 13 0 20 7 20 20 0 16 7 20 31 20 17 0 28
-4 24 -10 -3 -5 -13 -10 -21 -10 -8 0 -14 -4 -14 -10 0 -5 7 -10 15 -10 8 0
15 -4 15 -10 0 -5 -7 -10 -15 -10 -20 0 -19 -17 3 -29 14 -9 13 -10 -10 -11
-22 0 -28 5 -29 23 l0 22 -9 -22 c-7 -17 -18 -23 -40 -23 -29 0 -30 1 -30 50
0 49 1 50 30 50 21 0 30 -5 30 -16z m147 2 c-3 -8 -9 -31 -13 -50 -9 -48 -24
-46 -24 4 0 22 -4 40 -10 40 -5 0 -10 5 -10 10 0 6 14 10 31 10 23 0 30 -4 26
-14z m-833 -22 c4 -10 0 -18 -13 -21 -11 -3 -21 -13 -24 -24 -4 -15 -14 -19
-45 -19 -23 0 -44 5 -47 10 -3 6 -19 10 -34 10 -29 0 -57 21 -44 33 3 4 26 7
50 7 32 0 43 -4 43 -15 0 -8 5 -15 10 -15 6 0 9 3 9 8 -6 35 2 42 45 42 31 0
46 -5 50 -16z m1070 1 c3 -9 -3 -19 -15 -25 -11 -6 -17 -15 -14 -19 12 -20
-71 -29 -103 -12 -9 6 -29 12 -44 16 -47 9 -35 35 17 35 33 0 45 -4 45 -15 0
-8 5 -15 10 -15 6 0 10 11 10 25 0 23 4 25 44 25 30 0 46 -5 50 -15z m-1065
-81 c17 -4 31 -11 31 -16 0 -5 -19 -26 -42 -46 -22 -20 -56 -52 -74 -69 -37
-36 -55 -41 -74 -18 -7 9 -15 13 -18 10 -3 -3 -11 0 -19 6 -7 6 -13 8 -13 3 0
-5 -4 -3 -8 4 -14 22 -1 71 28 102 26 27 34 30 93 30 35 0 79 -3 96 -6z m-199
-13 c0 -6 -4 -13 -10 -16 -5 -3 -10 1 -10 9 0 9 5 16 10 16 6 0 10 -4 10 -9z
m395 -20 c16 -7 38 -21 48 -32 10 -10 31 -19 46 -19 16 0 35 -7 42 -16 7 -9
23 -20 36 -25 13 -5 23 -13 23 -18 0 -12 -63 -23 -97 -16 -27 6 -27 6 -8 -10
11 -9 44 -23 73 -31 28 -9 52 -16 52 -17 0 -1 -42 -2 -94 -2 -52 0 -93 2 -91
5 5 9 -21 65 -39 83 -23 23 -43 22 -23 -1 10 -10 17 -29 17 -42 0 -22 -2 -23
-61 -16 -34 3 -84 6 -110 6 -28 0 -49 5 -49 11 0 15 101 109 117 109 8 0 11 5
8 10 -21 34 46 47 110 21z m-447 -105 c4 -16 0 -18 -29 -12 -39 7 -43 11 -34
26 11 18 59 8 63 -14z m186 -52 c9 -3 16 -15 16 -26 0 -12 -5 -18 -12 -15 -62
23 -78 18 -28 -8 17 -9 45 -14 63 -13 33 3 49 -12 25 -24 -7 -4 -43 -21 -81
-39 -64 -30 -70 -31 -108 -19 -56 19 -73 33 -65 56 14 42 41 64 81 67 22 1 46
8 53 15 15 13 32 15 56 6z m182 -111 c9 -15 19 -22 21 -16 5 14 33 6 33 -9 0
-6 -14 -8 -35 -5 -19 3 -35 3 -35 1 0 -11 23 -49 34 -56 8 -5 7 -11 -1 -19
-11 -11 -69 -4 -221 27 -37 7 -9 42 61 75 81 37 119 38 143 2z m54 -63 c0 -22
-8 -25 -30 -10 -13 9 -13 11 0 20 22 15 30 12 30 -10z m978 -210 c23 -10 42
-21 42 -25 0 -3 -36 -5 -80 -5 -71 0 -80 2 -80 18 0 10 3 22 7 25 12 13 68 6
111 -13z"/>
<path d="M10480 5414 c0 -21 4 -33 10 -29 6 3 10 19 10 36 0 16 -4 29 -10 29
-5 0 -10 -16 -10 -36z"/>
<path d="M10741 5394 c0 -11 3 -14 6 -6 3 7 2 16 -1 19 -3 4 -6 -2 -5 -13z"/>
<path d="M10900 5415 c0 -19 5 -35 10 -35 6 0 10 16 10 35 0 19 -4 35 -10 35
-5 0 -10 -16 -10 -35z"/>
<path d="M10812 6008 c-15 -8 -21 -17 -17 -30 9 -26 -3 -42 -21 -27 -33 27
-77 -60 -49 -97 8 -11 15 -14 15 -6 0 6 7 12 16 12 14 0 15 -2 3 -17 -13 -15
-12 -15 9 -4 19 10 22 9 22 -6 1 -15 5 -13 25 9 14 16 25 23 27 16 5 -13 118
-20 118 -8 0 4 8 10 19 13 22 5 33 54 18 79 -7 10 -24 18 -38 18 -21 0 -26 4
-22 18 3 12 -4 22 -21 30 -24 11 -26 10 -26 -13 0 -20 -5 -25 -25 -25 -22 0
-25 3 -19 25 7 27 1 29 -34 13z m11 -28 c3 -11 1 -23 -4 -26 -5 -3 -9 6 -9 20
0 31 6 34 13 6z m94 -22 c-3 -7 -5 -2 -5 12 0 14 2 19 5 13 2 -7 2 -19 0 -25z
m-150 -73 c0 -8 -9 -15 -19 -15 -10 0 -18 7 -18 15 0 8 8 15 18 15 10 0 19 -7
19 -15z m220 -11 c-3 -3 -12 -4 -19 -1 -8 3 -5 6 6 6 11 1 17 -2 13 -5z"/>
<path d="M10070 5998 c0 -24 16 -39 34 -32 16 6 16 8 0 25 -20 22 -34 25 -34
7z"/>
<path d="M10681 5934 c0 -11 3 -14 6 -6 3 7 2 16 -1 19 -3 4 -6 -2 -5 -13z"/>
<path d="M10200 5835 c-11 -13 -10 -14 4 -9 9 3 16 10 16 15 0 13 -6 11 -20
-6z"/>
<path d="M9935 5830 c3 -5 11 -10 16 -10 6 0 7 5 4 10 -3 6 -11 10 -16 10 -6
0 -7 -4 -4 -10z"/>
<path d="M1104 5771 c-1 -99 -46 -190 -170 -343 -99 -121 -119 -166 -119 -265
0 -72 -2 -83 -17 -83 -34 0 -70 45 -93 115 l-22 68 -31 -75 c-33 -80 -62 -218
-62 -299 0 -27 -4 -49 -8 -49 -5 0 -35 9 -67 20 -32 11 -59 20 -59 20 -1 0 -2
-39 -3 -87 -1 -49 -4 -171 -8 -273 -4 -147 -3 -181 7 -165 6 11 11 50 11 86
l-1 66 56 -17 c46 -14 64 -27 95 -66 38 -48 38 -50 32 -116 l-6 -68 100 0 c87
0 101 2 101 17 0 15 1 15 18 0 20 -18 81 -23 98 -9 5 5 50 5 99 1 109 -9 425
-8 425 3 0 6 63 28 83 28 4 0 7 -9 7 -20 0 -19 7 -20 105 -20 l105 0 0 35 c0
23 13 54 40 95 41 65 57 126 47 186 -6 35 -6 35 26 29 18 -4 53 -15 80 -25
l47 -18 -2 185 -3 186 -65 23 c-92 33 -91 33 -84 -30 6 -48 4 -55 -17 -70
l-24 -16 -7 82 c-7 79 -50 242 -66 252 -4 2 -32 -11 -62 -30 -95 -60 -121 -38
-101 84 17 106 16 220 -3 286 -35 121 -134 224 -288 302 -55 28 -79 34 -130
34 l-63 0 -1 -59z m128 -313 c142 -54 250 -144 282 -234 20 -58 29 -120 21
-154 l-7 -31 -46 47 c-27 27 -75 61 -112 78 -58 28 -75 31 -160 31 -85 0 -101
-3 -155 -29 -33 -17 -84 -54 -113 -83 -109 -108 -84 -46 37 96 104 121 126
166 125 253 l-1 68 26 -7 c14 -3 61 -19 103 -35z m-415 -472 c3 -31 10 -56 15
-56 6 0 7 -8 3 -17 -4 -10 -11 -47 -17 -83 -6 -36 -14 -73 -19 -82 -6 -10 -5
-44 2 -85 15 -94 14 -112 -9 -135 -16 -16 -24 -18 -39 -9 -30 15 -56 78 -62
146 -3 48 -6 55 -13 35 -4 -15 -6 11 -3 65 2 54 12 116 25 155 22 66 43 103
34 59 -3 -13 4 -4 16 21 37 79 58 75 67 -14z m862 3 c27 -63 45 -185 46 -310
0 -89 -2 -98 -27 -131 -21 -27 -33 -35 -49 -31 -31 8 -45 47 -29 81 7 15 16
54 20 87 l7 60 8 -44 8 -43 18 48 c20 53 25 129 9 139 -5 3 -10 -1 -10 -10 0
-12 -6 -15 -20 -10 -18 6 -20 1 -22 -37 -1 -40 -1 -41 -5 -8 -2 19 -10 40 -17
45 -20 16 -26 85 -12 151 7 33 16 66 20 73 12 18 31 -2 55 -60z m-342 22 c72
-38 123 -104 123 -160 0 -18 -10 -19 -142 -25 -79 -3 -192 -2 -253 2 l-110 7
2 30 c5 62 70 128 162 162 53 20 166 11 218 -16z m-407 -251 c0 -5 -9 -14 -20
-20 -11 -6 -20 -20 -20 -31 0 -14 -5 -19 -17 -17 -20 4 -21 42 -2 65 13 15 59
18 59 3z m480 2 c0 -4 -9 -15 -20 -25 -11 -9 -20 -24 -20 -32 0 -20 -29 -20
-36 0 -10 24 23 65 51 65 14 0 25 -3 25 -8z m-171 -36 c6 -7 18 -36 26 -63 23
-77 69 -117 160 -138 30 -7 30 -7 7 -18 -23 -10 -23 -14 -17 -91 6 -73 5 -84
-14 -107 -24 -31 -55 -39 -170 -46 -64 -3 -98 0 -140 13 -31 10 -59 17 -63 16
-13 -3 -20 69 -14 137 6 63 5 68 -15 77 -19 9 -14 12 38 27 66 18 118 64 128
115 17 77 48 110 74 78z m-467 -241 c22 -2 23 -6 26 -93 2 -81 0 -94 -18 -112
-26 -26 -52 -26 -76 1 -16 18 -19 36 -19 108 1 47 4 99 8 115 l8 29 24 -23
c14 -13 35 -24 47 -25z m965 -62 c7 -105 1 -138 -27 -153 -56 -30 -92 26 -88
138 l3 77 29 0 c19 1 35 9 44 23 23 35 33 14 39 -85z"/>
<path d="M707 4907 c-4 -10 -7 -40 -6 -65 l1 -47 9 45 c5 25 8 54 7 65 -3 19
-4 19 -11 2z"/>
<path d="M1159 4544 c-9 -11 -10 -20 -2 -32 16 -25 38 -20 41 9 4 31 -20 45
-39 23z"/>
<path d="M1229 4544 c-9 -11 -10 -20 -2 -32 16 -25 38 -20 41 9 4 31 -20 45
-39 23z"/>
<path d="M1076 4421 c-8 -13 40 -68 75 -86 15 -8 42 -15 59 -15 58 0 140 57
140 98 0 11 -13 12 -62 7 -78 -10 -70 -10 -145 -1 -36 4 -64 3 -67 -3z"/>
<path d="M7982 5774 c-44 -30 -20 -104 34 -104 44 0 64 17 64 55 0 35 -28 65
-60 65 -9 0 -26 -7 -38 -16z"/>
<path d="M10365 5689 c-4 -6 -5 -12 -2 -15 2 -3 7 2 10 11 7 17 1 20 -8 4z"/>
<path d="M9982 5665 c-18 -38 -15 -41 13 -15 28 26 32 40 12 40 -8 0 -19 -11
-25 -25z"/>
<path d="M667 5612 c-49 -85 -55 -117 -29 -173 41 -91 44 -90 80 4 37 98 41
157 12 205 -11 17 -21 32 -22 32 -2 0 -20 -31 -41 -68z"/>
<path d="M10323 5633 c-7 -3 -13 -9 -13 -15 0 -6 6 -8 14 -5 9 4 17 -1 19 -11
3 -12 5 -11 6 5 1 24 -8 33 -26 26z"/>
<path d="M10360 5600 c0 -11 2 -20 5 -20 2 0 9 9 15 20 9 16 8 20 -5 20 -8 0
-15 -9 -15 -20z"/>
<path d="M5282 5294 c-46 -32 -16 -104 44 -104 28 0 54 30 54 63 0 27 -32 57
-60 57 -9 0 -26 -7 -38 -16z"/>
<path d="M6650 5200 c0 -55 -4 -100 -8 -100 -5 0 -17 9 -27 20 -37 41 -132 38
-185 -7 -48 -40 -64 -79 -64 -163 -1 -93 6 -121 45 -165 53 -60 150 -69 204
-19 32 30 35 30 35 -1 0 -23 3 -25 50 -25 l50 0 0 280 0 280 -50 0 -50 0 0
-100z m-32 -163 c44 -47 37 -168 -11 -202 -29 -20 -80 -19 -107 3 -41 33 -44
159 -5 202 26 29 94 27 123 -3z"/>
<path d="M4109 5266 c-95 -34 -147 -111 -156 -229 -10 -131 36 -230 131 -280
49 -25 175 -30 216 -8 50 27 110 97 110 129 0 9 -78 48 -83 41 -2 -2 -8 -16
-15 -31 -16 -39 -57 -61 -112 -62 -92 -2 -140 61 -140 179 1 131 55 194 159
182 37 -4 52 -12 76 -40 l31 -35 37 21 c20 11 37 27 37 35 0 25 -74 89 -115
101 -53 14 -131 13 -176 -3z"/>
<path d="M7800 5005 l0 -265 148 0 c123 0 154 4 189 20 55 24 83 70 83 133 0
59 -22 99 -66 123 l-33 18 30 33 c53 61 34 159 -38 189 -22 10 -77 14 -173 14
l-140 0 0 -265z m264 169 c9 -8 16 -31 16 -49 0 -48 -29 -65 -107 -65 l-63 0
0 65 0 65 69 0 c50 0 74 -4 85 -16z m23 -209 c47 -33 36 -115 -19 -134 -17 -6
-60 -11 -94 -11 l-64 0 0 80 0 80 78 0 c52 0 84 -5 99 -15z"/>
<path d="M1892 5174 c-54 -73 -55 -101 -2 -158 22 -24 49 -46 60 -49 18 -5 20
0 20 40 0 24 5 64 11 89 12 48 2 89 -30 118 -16 15 -21 12 -59 -40z"/>
<path d="M4587 5136 c-79 -29 -116 -92 -117 -195 0 -116 49 -182 152 -203 139
-28 247 72 236 219 -9 118 -67 181 -175 189 -36 3 -73 -1 -96 -10z m142 -101
c40 -52 38 -149 -5 -192 -32 -32 -92 -32 -123 1 -40 43 -41 151 0 194 30 33
101 31 128 -3z"/>
<path d="M5126 5139 c-16 -4 -40 -21 -52 -36 l-23 -28 -1 33 c0 31 -1 32 -45
32 l-45 0 0 -200 0 -200 50 0 50 0 0 129 c0 114 2 131 20 154 16 20 31 27 67
29 46 3 47 4 55 42 5 21 7 40 6 41 -12 9 -58 11 -82 4z"/>
<path d="M5555 5135 c-21 -9 -49 -25 -61 -36 l-22 -21 20 -34 20 -34 34 26
c39 30 107 43 129 24 8 -7 15 -23 15 -35 0 -24 -21 -35 -100 -51 -54 -10 -105
-40 -118 -69 -35 -76 10 -158 92 -170 47 -7 85 5 114 35 l20 21 25 -25 c20
-20 36 -26 70 -26 24 0 46 2 48 5 3 2 3 20 1 39 -3 26 -9 36 -26 38 -20 3 -21
10 -26 128 -5 129 -13 154 -53 180 -32 19 -136 22 -182 5z m141 -250 c-9 -46
-38 -75 -75 -75 -79 0 -81 92 -3 106 20 4 44 10 52 15 23 12 33 -6 26 -46z"/>
<path d="M6074 5136 c-17 -8 -39 -24 -48 -37 l-16 -23 0 32 c0 32 0 32 -50 32
l-50 0 0 -200 0 -200 50 0 50 0 0 119 c0 168 15 201 94 201 61 0 66 -13 66
-176 l0 -144 50 0 50 0 0 156 c0 121 -4 163 -16 189 -27 58 -110 81 -180 51z"/>
<path d="M6962 5138 c-42 -14 -98 -77 -111 -125 -30 -106 8 -216 88 -257 88
-46 223 -18 261 54 8 15 4 22 -24 40 l-34 21 -26 -26 c-53 -53 -166 -20 -166
50 l0 25 130 0 130 0 0 52 c0 65 -29 127 -71 152 -37 22 -131 29 -177 14z
m128 -88 c11 -11 20 -31 20 -45 0 -25 -1 -25 -80 -25 -74 0 -80 2 -80 20 0 58
97 93 140 50z"/>
<path d="M7473 5143 c-12 -2 -34 -18 -48 -34 l-25 -31 0 31 c0 30 -1 31 -50
31 l-50 0 0 -200 0 -200 50 0 50 0 0 104 c0 171 16 206 95 206 43 0 43 0 50
41 4 22 5 42 3 43 -8 7 -55 12 -75 9z"/>
<path d="M8412 5138 c-42 -14 -98 -77 -111 -125 -30 -106 8 -216 88 -257 88
-46 223 -18 261 54 8 15 4 22 -24 40 l-34 21 -26 -26 c-53 -53 -166 -20 -166
50 l0 25 130 0 130 0 0 52 c0 65 -29 127 -71 152 -37 22 -131 29 -177 14z
m128 -88 c11 -11 20 -31 20 -45 0 -25 -1 -25 -80 -25 -74 0 -80 2 -80 20 0 58
97 93 140 50z"/>
<path d="M8853 5139 c-45 -13 -100 -71 -112 -116 -21 -76 -9 -166 29 -220 59
-81 220 -94 292 -23 35 36 35 44 -2 70 l-30 22 -31 -26 c-59 -50 -148 -24
-165 47 l-6 27 137 0 138 0 -6 66 c-5 69 -21 101 -69 137 -30 22 -127 31 -175
16z m127 -89 c11 -11 20 -31 20 -45 0 -25 -1 -25 -80 -25 -74 0 -80 2 -80 20
0 58 97 93 140 50z"/>
<path d="M9363 5143 c-12 -2 -34 -18 -48 -34 l-25 -31 0 31 c0 30 -1 31 -50
31 l-50 0 0 -200 0 -200 50 0 50 0 0 120 c0 164 14 190 100 190 36 0 38 1 44
41 4 23 5 43 4 44 -8 6 -56 11 -75 8z"/>
<path d="M488 5089 c-54 -73 -52 -109 7 -166 25 -24 49 -43 54 -43 5 0 11 21
14 48 20 156 21 149 -2 181 -13 17 -25 31 -29 31 -4 0 -24 -23 -44 -51z"/>
<path d="M5270 4940 l0 -200 50 0 50 0 0 200 0 200 -50 0 -50 0 0 -200z"/>
<path d="M9504 4835 c-25 -26 -26 -52 -2 -82 15 -18 74 -16 92 3 24 23 20 70
-6 88 -32 22 -55 20 -84 -9z"/>
<path d="M12346 4660 c-34 -10 -68 -39 -60 -51 3 -5 25 -9 50 -9 32 0 44 -4
44 -15 0 -11 -11 -15 -40 -15 -29 0 -43 -5 -47 -17 -4 -9 -1 -19 5 -21 18 -6
15 -32 -4 -32 -9 0 -23 -20 -36 -49 -23 -57 -61 -81 -97 -61 -15 7 -27 8 -40
0 -11 -5 -28 -10 -39 -10 -11 0 -25 -7 -32 -15 -10 -12 62 -15 577 -17 576 -3
589 -3 634 -24 67 -31 124 -87 156 -152 27 -56 27 -63 33 -279 l5 -222 33 20
32 21 0 464 c0 393 -3 464 -15 464 -7 0 -17 -5 -21 -11 -4 -7 -9 -7 -13 -1 -3
5 -132 12 -311 16 -396 8 -672 16 -735 20 -27 2 -63 0 -79 -4z m264 -62 c8 0
27 4 42 7 21 6 29 2 43 -19 16 -24 16 -28 1 -51 -11 -17 -26 -25 -45 -25 -23
0 -29 -6 -39 -36 -10 -32 -9 -36 13 -46 30 -14 50 0 58 41 4 16 14 32 24 35
13 4 18 16 18 37 0 69 105 93 113 26 4 -31 -21 -38 -36 -10 -11 19 -42 11 -42
-12 0 -9 8 -19 18 -22 44 -16 29 -56 -18 -47 -22 5 -29 2 -35 -15 -9 -29 1
-41 37 -41 21 0 39 9 59 31 34 37 56 31 34 -10 -8 -16 -31 -36 -51 -46 -31
-14 -43 -15 -74 -6 -27 8 -46 8 -66 1 -20 -8 -36 -8 -56 1 -22 9 -32 9 -41 0
-15 -15 -70 -14 -85 1 -7 7 -12 24 -12 40 0 33 29 52 70 46 25 -4 29 0 40 35
9 32 9 41 -2 48 -17 11 -25 11 -50 -2 -15 -8 -22 -8 -28 1 -10 17 -40 5 -40
-15 0 -8 5 -15 10 -15 6 0 10 -7 10 -15 0 -8 -7 -15 -15 -15 -9 0 -24 -19 -35
-44 -10 -25 -31 -53 -46 -62 -24 -16 -29 -16 -53 -3 -17 9 -26 23 -26 39 0 30
25 39 32 11 10 -40 45 -21 58 32 5 17 3 27 -4 27 -19 0 -12 22 8 27 24 6 36
43 14 43 -8 0 -13 6 -11 13 5 13 126 27 168 19 14 -3 32 -5 40 -4z m434 -1
c23 -17 18 -70 -6 -75 -13 -2 -18 3 -18 17 0 42 -29 21 -46 -33 -20 -62 -14
-86 19 -86 32 0 40 12 69 94 26 79 54 105 92 88 17 -8 27 -7 35 1 10 9 16 7
27 -7 8 -11 10 -22 6 -25 -15 -10 -57 -139 -48 -148 10 -10 35 23 43 57 3 14
16 48 28 76 22 50 24 51 61 49 22 -1 44 -4 49 -6 6 -2 20 0 32 5 29 9 63 -9
63 -34 0 -11 -9 -43 -20 -72 -11 -29 -20 -59 -20 -65 0 -22 20 -14 32 12 6 14
17 25 25 25 31 0 0 -65 -39 -81 -26 -11 -32 -10 -50 9 l-21 20 23 66 c23 65
22 93 -4 65 -7 -8 -24 -45 -37 -82 -25 -74 -43 -97 -61 -79 -7 7 -3 30 16 79
28 73 31 93 17 93 -14 0 -26 -22 -51 -90 -12 -36 -26 -70 -31 -76 -11 -14 -57
-15 -81 -3 -10 6 -26 5 -41 -2 -17 -8 -31 -8 -42 -1 -12 6 -29 6 -50 -1 -24
-7 -39 -6 -60 4 -49 24 -52 41 -26 120 31 90 70 119 115 86z"/>
<path d="M12645 4560 c-3 -5 1 -10 9 -10 9 0 16 5 16 10 0 6 -4 10 -9 10 -6 0
-13 -4 -16 -10z"/>
<path d="M12517 4444 c-14 -14 -7 -35 11 -32 9 2 17 10 17 17 0 16 -18 25 -28
15z"/>
<path d="M13125 4560 c-14 -22 -44 -123 -40 -131 3 -4 12 -6 20 -3 17 7 58
112 51 131 -6 15 -22 17 -31 3z"/>
<path d="M12196 4524 c-21 -24 -34 -44 -28 -44 7 0 9 -11 6 -30 -5 -23 -3 -30
9 -30 19 0 34 18 42 53 5 17 3 27 -4 27 -19 0 -12 22 8 27 21 5 37 44 18 42
-7 0 -29 -21 -51 -45z"/>
<path d="M11927 4227 c-50 -36 -61 -40 -77 -29 -30 19 -64 14 -88 -11 -47 -50
-48 -71 -50 -757 0 -355 2 -667 6 -695 5 -37 12 -50 27 -55 11 -3 40 -18 64
-35 l45 -30 535 -1 c315 -1 513 2 481 6 -31 5 -77 16 -103 25 -36 12 -56 14
-80 6 -48 -14 -247 -25 -247 -13 0 42 2 42 249 42 195 0 240 -3 258 -15 19
-14 27 -14 65 0 24 8 60 15 82 15 39 0 39 0 33 -35 -6 -34 -5 -35 29 -35 40 0
94 20 131 50 14 11 36 20 48 20 21 0 24 5 28 63 6 95 7 1178 0 1295 -5 97 -7
103 -29 108 -22 6 -29 16 -25 38 3 16 -24 39 -74 62 -49 23 -57 24 -347 24
l-297 0 -40 -40 c-43 -44 -53 -47 -71 -25 -7 8 -16 15 -20 15 -12 0 -30 -74
-20 -80 5 -3 -11 -12 -37 -18 -25 -7 -43 -15 -41 -18 3 -3 34 -8 69 -12 l64
-7 1 -51 2 -51 -68 -7 c-172 -16 -373 -104 -496 -219 -44 -41 -84 -69 -103
-73 -17 -4 -33 -14 -36 -25 -4 -11 -15 -19 -26 -19 -23 0 -23 -1 -4 43 20 48
19 50 -12 43 -28 -7 -27 -7 4 13 23 14 34 30 39 57 4 21 10 31 14 24 5 -8 9
-5 13 9 3 12 1 19 -4 15 -14 -8 -11 3 10 44 10 20 24 52 29 70 l11 33 -32 -6
-32 -7 23 17 c13 9 29 14 37 11 8 -3 14 -2 14 2 -3 20 2 42 10 42 17 0 42 -32
37 -46 -3 -8 -1 -14 4 -14 5 0 11 8 13 18 4 16 5 16 6 0 1 -13 10 -18 31 -18
38 0 120 22 120 32 0 11 62 43 77 40 9 -2 10 4 4 20 -4 13 -6 29 -4 36 3 9
-12 12 -56 12 -61 0 -61 0 -61 -29 0 -32 -25 -60 -40 -45 -6 6 -6 22 -1 41 11
36 6 43 -25 43 -12 0 -30 8 -40 17 -18 18 -9 22 166 70 30 8 62 21 70 29 12
12 0 14 -95 13 l-110 -1 -58 -41z m688 -21 c-16 -16 -22 -31 -18 -45 5 -21 9
-21 289 -21 228 0 284 -3 284 -13 0 -7 -5 -40 -11 -73 -6 -32 -16 -110 -23
-172 l-11 -114 -50 39 c-127 99 -248 147 -427 169 l-48 5 0 79 c0 77 -1 80
-25 86 -14 3 -37 3 -51 0 -35 -9 -23 8 29 42 72 47 98 54 62 18z m587 -16 c19
-33 9 -47 -23 -30 -14 8 -19 18 -16 31 3 10 1 17 -4 13 -5 -3 -9 0 -9 5 0 23
36 9 52 -19z m-1239 -95 c4 -8 2 -17 -2 -20 -5 -2 -11 4 -14 15 -6 23 8 27 16
5z m-100 -24 c11 -11 -41 -71 -61 -71 -12 1 -8 9 16 29 17 15 32 31 32 34 0
15 -35 6 -57 -15 l-23 -21 0 21 c0 17 -6 22 -27 23 l-28 1 25 9 c28 9 110 3
123 -10z m569 -238 c-5 -27 -22 -42 -22 -19 0 8 -3 21 -6 30 -4 10 0 14 13 13
15 -1 18 -7 15 -24z m156 -5 c7 -7 12 -17 12 -22 0 -6 -4 -5 -9 3 -8 12 -13
12 -24 3 -12 -10 -16 -10 -20 2 -5 13 4 22 24 25 3 1 10 -4 17 -11z m-335 -35
c-8 -3 -9 -12 -3 -28 11 -28 -4 -37 -67 -39 -46 -2 -80 -25 -85 -60 -3 -21 -3
-21 -16 2 -27 47 -7 63 100 79 30 4 39 11 47 35 7 19 15 27 23 22 9 -6 9 -9 1
-11z m496 -42 c9 -15 7 -20 -11 -24 -27 -8 -29 -6 -21 21 7 27 19 28 32 3z
m-340 -41 c-9 -6 -15 -5 -18 3 -6 18 -24 27 -36 17 -6 -5 -21 -3 -35 5 -24 13
-23 13 23 13 27 0 52 3 55 7 4 3 11 -3 16 -15 7 -16 6 -24 -5 -30z m153 -30
c-4 -56 -3 -62 17 -67 l22 -6 -21 -14 c-12 -9 -19 -21 -16 -30 3 -8 1 -11 -4
-8 -6 3 -10 13 -10 21 0 8 -5 14 -11 14 -6 0 -9 -9 -6 -20 3 -10 -1 -24 -9
-31 -12 -9 -14 -5 -14 23 0 19 5 39 12 46 6 6 13 38 14 69 3 89 2 87 17 75 9
-8 12 -30 9 -72z m-338 -36 c-5 -18 0 -22 28 -28 28 -6 31 -8 15 -17 -9 -6
-32 -9 -50 -7 -35 3 -38 17 -17 73 9 23 13 26 20 15 5 -8 7 -24 4 -36z m180 9
c-8 -33 -12 -39 -20 -30 -9 9 5 57 16 57 6 0 8 -11 4 -27z m-364 -23 c0 -5 12
-10 26 -10 15 0 23 -4 18 -11 -3 -6 -16 -8 -29 -5 -29 7 -49 -16 -41 -48 4
-15 1 -26 -7 -29 -21 -8 46 -28 88 -27 70 3 95 0 95 -10 0 -6 -33 -10 -77 -10
-100 0 -127 -13 -131 -63 -4 -44 -18 -49 -24 -7 -3 17 -1 30 4 30 4 0 8 5 8
11 0 6 -7 8 -16 5 -11 -4 -14 -1 -12 12 2 11 16 19 43 23 22 3 32 7 23 8 -27
2 -43 39 -25 59 8 9 12 23 10 30 -3 7 3 22 13 33 19 21 34 25 34 9z m330 -24
c0 -2 -7 -6 -15 -10 -8 -3 -15 -1 -15 4 0 6 7 10 15 10 8 0 15 -2 15 -4z m390
-10 c0 -3 -4 -8 -10 -11 -5 -3 -10 -1 -10 4 0 6 5 11 10 11 6 0 10 -2 10 -4z
m-173 -72 c-3 -3 -12 -4 -19 -1 -8 3 -5 6 6 6 11 1 17 -2 13 -5z m-207 -38 c0
-8 -61 -12 -66 -4 -3 4 11 8 30 8 20 0 36 -2 36 -4z m163 -33 c-12 -18 -18
-22 -22 -12 -2 8 -9 17 -15 21 -12 8 34 29 46 21 4 -2 0 -16 -9 -30z m151 12
c-4 -8 -10 -12 -15 -9 -14 8 -10 24 6 24 9 0 12 -6 9 -15z m196 -12 c0 -11 -3
-14 -8 -7 -4 6 -14 14 -22 17 -10 4 -8 6 8 6 15 1 22 -5 22 -16z m-520 -73 c0
-28 -15 -48 -27 -36 -3 3 -2 21 1 41 8 41 26 38 26 -5z m375 -60 c3 -5 -1 -10
-10 -10 -9 0 -13 5 -10 10 3 6 8 10 10 10 2 0 7 -4 10 -10z m-640 -9 c3 -5 1
-12 -5 -16 -5 -3 -10 1 -10 9 0 18 6 21 15 7z m37 -33 c-3 -18 -10 -36 -16
-40 -16 -11 -66 -10 -66 1 0 15 29 33 45 27 10 -3 15 1 15 13 0 10 3 21 7 24
14 15 19 6 15 -25z m620 10 c-7 -7 -12 -8 -12 -2 0 14 12 26 19 19 2 -3 -1
-11 -7 -17z m-27 -47 c-3 -12 -10 -21 -15 -21 -5 0 -4 11 2 25 13 29 23 26 13
-4z m-398 -35 c-3 -8 -1 -31 4 -51 12 -43 3 -79 -17 -71 -8 3 -24 -4 -35 -15
l-21 -21 31 7 c28 6 31 4 31 -17 0 -13 -5 -30 -10 -38 -8 -13 -12 -12 -25 8
-11 15 -26 22 -51 22 -43 0 -45 22 -4 47 38 22 48 55 26 88 -16 24 -16 25 7
25 20 0 23 -4 19 -25 -7 -41 16 -28 28 15 6 22 13 40 16 40 4 0 4 -6 1 -14z
m-177 -25 c0 -6 -4 -13 -10 -16 -5 -3 -10 1 -10 9 0 9 5 16 10 16 6 0 10 -4
10 -9z m357 -43 c-2 -40 -6 -53 -17 -53 -20 0 -25 51 -9 82 20 36 28 27 26
-29z m-2 -88 c3 -5 1 -10 -4 -10 -6 0 -11 5 -11 10 0 6 2 10 4 10 3 0 8 -4 11
-10z"/>
<path d="M11636 4224 c-3 -9 -6 -39 -6 -67 l1 -52 28 60 c24 52 26 61 12 67
-24 10 -28 9 -35 -8z"/>
<path d="M13483 3658 c-27 -16 -33 -26 -33 -54 0 -32 2 -34 35 -34 l35 0 0 55
c0 30 -1 55 -2 54 -2 0 -18 -10 -35 -21z"/>
<path d="M5100 3395 c0 -271 5 -296 66 -321 46 -19 109 -11 100 12 -3 9 -6 27
-6 40 0 19 -5 24 -24 24 -13 0 -27 7 -30 16 -3 9 -6 117 -6 240 l0 224 -50 0
-50 0 0 -235z"/>
<path d="M8800 3350 l0 -280 50 0 50 0 0 135 c0 131 1 137 25 160 17 18 35 25
63 25 61 0 67 -13 70 -177 l4 -143 50 0 50 0 -4 158 c-4 179 -15 213 -73 238
-62 26 -112 17 -162 -29 l-23 -20 0 106 0 107 -50 0 -50 0 0 -280z"/>
<path d="M3930 3596 c0 -7 110 -487 116 -508 4 -15 17 -18 63 -18 l59 0 42
170 c23 94 45 170 49 170 3 0 26 -76 51 -170 l45 -170 60 0 60 0 58 258 c32
141 57 260 57 265 0 4 -22 7 -48 7 l-48 0 -40 -185 c-21 -102 -42 -185 -45
-185 -4 0 -14 30 -23 68 -9 37 -31 120 -48 185 l-31 118 -46 -3 -46 -3 -45
-177 c-25 -97 -48 -179 -52 -183 -3 -4 -12 20 -18 52 -7 32 -24 114 -39 183
l-27 125 -52 3 c-29 2 -52 1 -52 -2z"/>
<path d="M7625 3564 c-5 -1 -27 -5 -47 -9 -36 -6 -38 -8 -38 -45 0 -38 -2 -40
-30 -40 -28 0 -30 -2 -30 -40 0 -37 2 -40 29 -40 l29 0 4 -125 c3 -106 7 -129
24 -152 37 -50 139 -66 188 -30 14 10 15 17 5 45 -10 30 -13 32 -49 26 -57 -9
-70 16 -70 138 l0 98 60 0 60 0 0 40 0 39 -57 3 -58 3 -5 46 c-3 25 -9 45 -15
43z"/>
<path d="M8585 3564 c-5 -1 -27 -5 -47 -9 -36 -6 -38 -8 -38 -45 0 -38 -2 -40
-30 -40 -28 0 -30 -2 -30 -40 0 -38 2 -40 30 -40 l30 0 0 -117 c0 -128 7 -153
53 -187 32 -24 117 -28 154 -8 21 11 21 14 9 50 -9 23 -19 36 -27 33 -79 -22
-89 -8 -89 125 l0 104 55 0 55 0 0 40 0 40 -54 0 -55 0 -3 48 c-2 27 -7 48
-13 46z"/>
<path d="M13483 3553 l-33 -4 0 -370 c0 -253 3 -369 11 -369 5 0 8 4 4 9 -3 5
-1 12 4 15 5 3 12 -1 15 -10 11 -27 7 -36 -14 -29 -13 4 -22 1 -24 -7 -38
-132 -114 -214 -226 -249 -14 -4 46 -8 138 -8 l162 -1 0 120 c0 66 -4 120 -9
120 -12 0 -20 59 -9 66 4 3 6 15 3 27 -13 54 -12 85 1 80 12 -4 14 48 14 306
0 171 -1 310 -2 309 -2 0 -18 -3 -35 -5z"/>
<path d="M3146 3423 c-69 -164 -110 -252 -144 -313 -20 -36 -58 -108 -85 -160
-186 -363 -225 -420 -330 -496 -105 -75 -174 -139 -197 -184 -10 -19 -147
-359 -306 -755 l-288 -720 0 -77 c-1 -68 2 -80 24 -103 45 -48 242 -138 483
-221 185 -63 226 -59 286 27 38 56 62 112 300 709 241 602 311 790 324 864 9
53 7 79 -11 174 -12 61 -22 126 -22 144 0 48 26 186 45 238 9 25 25 83 36 130
11 47 35 135 53 195 19 61 39 132 45 159 12 51 70 212 102 283 11 23 19 46 19
51 0 16 -84 69 -144 91 -33 12 -82 24 -110 27 l-51 5 -29 -68z m135 -174 c19
-13 42 -22 52 -21 14 3 17 -1 13 -15 -3 -10 -15 -60 -26 -112 -22 -105 -33
-124 -64 -116 -20 6 -20 5 -3 -8 9 -8 17 -20 17 -28 0 -19 -160 -502 -170
-513 -5 -4 -18 -2 -30 7 -17 11 -27 12 -49 4 -24 -9 -42 -6 -102 16 -88 32
-139 62 -139 80 0 7 19 51 41 98 23 46 67 140 98 209 32 69 70 145 86 170 16
25 44 77 63 115 85 177 128 220 164 164 9 -14 31 -37 49 -50z m-613 -996 c39
-16 82 -59 82 -81 0 -8 -21 -63 -47 -123 -54 -121 -73 -139 -147 -139 -42 0
-51 4 -86 43 -22 23 -40 50 -40 59 0 10 16 58 36 108 26 66 46 99 75 125 42
38 54 39 127 8z m122 -132 c13 -26 13 -41 -2 -41 -26 0 -40 17 -33 39 8 26 21
27 35 2z m214 -217 c-25 -54 -48 -94 -50 -88 -5 11 38 135 72 209 l18 40 3
-31 c3 -21 -11 -62 -43 -130z m-573 -138 c19 -8 44 -25 57 -39 l23 -25 -48 -7
c-45 -7 -49 -5 -77 26 -27 31 -28 33 -10 46 22 16 15 16 55 -1z m-37 -132 c22
-9 20 -34 -3 -34 -21 0 -45 23 -34 33 8 9 17 9 37 1z m136 -119 c0 -22 -37
-55 -62 -55 l-21 0 23 -25 c26 -28 25 -33 -9 -37 -31 -4 -50 25 -34 50 7 12 8
24 1 35 -7 13 -3 24 18 47 26 27 29 28 56 14 15 -8 28 -21 28 -29z m-373 -117
c-3 -8 -6 -5 -6 6 -1 11 2 17 5 13 3 -3 4 -12 1 -19z m163 -23 c0 -16 12 -34
35 -52 39 -31 42 -43 19 -78 -11 -17 -26 -25 -45 -25 -23 0 -29 -5 -29 -21 0
-16 -5 -20 -27 -17 -24 2 -28 8 -28 33 0 20 -7 33 -21 40 -35 17 -55 37 -66
64 -8 21 -5 29 12 43 12 10 39 18 59 19 20 0 45 4 56 9 31 13 35 12 35 -15z
m-115 -245 c18 -19 17 -20 -2 -20 -22 0 -47 23 -36 33 10 11 19 8 38 -13z
m-90 -121 c-10 -15 -25 -10 -19 6 4 8 10 12 15 9 5 -3 7 -10 4 -15z m49 -15
c9 -24 7 -34 -8 -34 -22 0 -38 24 -24 38 16 16 25 15 32 -4z m-22 -95 c20 -10
38 -24 40 -31 3 -7 -13 -64 -34 -126 -22 -61 -37 -116 -34 -120 9 -15 -80 4
-114 24 -18 10 -42 31 -52 45 -19 26 -19 26 11 85 16 32 32 70 36 84 18 71 61
82 147 39z"/>
<path d="M4767 3466 c-79 -29 -117 -92 -117 -196 0 -112 43 -174 139 -200 79
-21 163 3 208 60 18 22 16 28 -19 50 l-31 19 -29 -25 c-43 -35 -100 -33 -139
5 -16 16 -29 39 -29 50 0 19 7 21 133 23 l132 3 -2 58 c-3 75 -26 116 -83 145
-50 25 -106 28 -163 8z m132 -92 c12 -15 21 -35 21 -45 0 -17 -9 -19 -86 -19
-84 0 -85 0 -79 23 21 68 104 92 144 41z"/>
<path d="M5435 3465 c-108 -38 -154 -187 -94 -307 50 -100 205 -128 289 -52
55 50 57 70 9 94 -22 12 -39 16 -39 10 0 -6 -11 -22 -25 -35 -37 -38 -95 -35
-129 6 -21 25 -26 41 -26 85 0 59 19 108 45 118 9 3 34 6 55 6 30 0 43 -6 59
-26 l20 -26 36 22 c19 12 35 25 35 30 0 5 -12 22 -26 39 -41 49 -129 64 -209
36z"/>
<path d="M5853 3469 c-107 -31 -157 -187 -98 -305 34 -68 87 -99 170 -98 121
0 186 63 193 186 5 83 -15 146 -59 182 -50 42 -133 56 -206 35z m138 -105 c21
-22 24 -35 24 -94 0 -59 -3 -72 -24 -94 -33 -35 -92 -36 -126 -2 -43 43 -45
138 -4 190 29 37 95 37 130 0z"/>
<path d="M6375 3464 c-16 -8 -34 -22 -38 -30 -13 -22 -27 -16 -27 11 0 23 -4
25 -45 25 l-45 0 0 -200 0 -200 50 0 50 0 0 134 c0 120 2 136 21 160 26 33 92
37 109 7 5 -11 10 -83 10 -160 l0 -141 50 0 50 0 0 123 c0 153 14 190 73 195
64 5 67 -2 67 -169 l0 -149 50 0 50 0 0 159 c0 88 -4 171 -10 185 -28 76 -153
87 -215 20 -23 -25 -24 -25 -35 -5 -25 47 -108 65 -165 35z"/>
<path d="M7012 3468 c-42 -14 -98 -77 -111 -125 -30 -106 8 -216 88 -257 88
-46 223 -18 261 54 8 15 4 22 -24 40 l-34 21 -26 -26 c-53 -53 -166 -20 -166
50 l0 25 130 0 130 0 0 52 c0 65 -29 127 -71 152 -37 22 -131 29 -177 14z
m128 -88 c11 -11 20 -31 20 -45 0 -25 -1 -25 -80 -25 -74 0 -80 2 -80 20 0 58
97 93 140 50z"/>
<path d="M7943 3469 c-107 -31 -157 -187 -98 -305 34 -68 87 -99 170 -98 121
0 186 63 193 186 5 83 -15 146 -59 182 -50 42 -133 56 -206 35z m138 -105 c21
-22 24 -35 24 -94 0 -59 -3 -72 -24 -94 -33 -35 -92 -36 -126 -2 -43 43 -45
138 -4 190 29 37 95 37 130 0z"/>
<path d="M9354 3461 c-23 -10 -53 -34 -67 -53 -74 -96 -46 -272 51 -322 89
-46 223 -18 262 54 8 15 4 22 -24 40 l-34 21 -26 -26 c-19 -19 -35 -25 -68
-25 -46 1 -68 12 -86 47 -27 51 -22 53 118 53 l130 0 0 58 c0 76 -24 121 -80
150 -54 27 -120 28 -176 3z m134 -78 c12 -10 24 -30 28 -45 l6 -28 -86 0 c-53
0 -86 4 -86 10 0 18 29 68 42 73 28 12 77 6 96 -10z"/>
<path d="M10240 3446 c-53 -20 -131 -62 -163 -89 l-27 -23 20 -49 c42 -108 69
-184 93 -265 14 -47 44 -145 66 -217 23 -73 41 -142 41 -152 0 -11 11 -56 25
-100 14 -44 34 -124 43 -178 18 -95 18 -101 0 -188 -10 -49 -20 -130 -21 -180
l-2 -90 297 -744 c253 -631 304 -750 335 -785 46 -51 74 -66 123 -66 87 0 554
189 640 258 23 18 25 27 25 99 0 89 30 5 -296 823 -205 512 -264 655 -301 728
-31 62 -91 127 -162 174 -144 97 -133 81 -418 623 -92 175 -144 285 -188 403
-11 29 -16 32 -54 31 -22 0 -57 -6 -76 -13z m197 -310 c23 -38 43 -75 43 -82
0 -8 -12 -20 -27 -28 l-28 -15 33 6 32 6 61 -129 c34 -71 83 -175 109 -230 67
-140 69 -150 31 -159 -21 -4 -31 -13 -31 -25 0 -23 -27 -40 -124 -79 -89 -36
-112 -38 -125 -13 -18 35 -162 485 -165 516 -1 17 -7 40 -13 51 -6 11 -23 70
-39 131 -24 95 -26 116 -16 138 8 18 16 24 25 19 6 -4 40 -8 75 -8 52 0 63 3
68 19 5 16 9 14 27 -15 11 -19 40 -65 64 -103z m580 -1059 c33 -94 41 -129 24
-112 -16 17 -101 222 -100 241 1 37 42 -34 76 -129z m-362 0 c24 -38 81 -219
77 -249 -2 -16 -19 -41 -43 -62 -38 -35 -41 -36 -97 -29 -34 4 -62 13 -69 22
-20 27 -73 174 -76 211 -5 59 10 86 61 109 66 29 127 28 147 -2z m69 -3 c21
-8 20 -30 -1 -38 -11 -5 -22 -1 -30 10 -20 27 -4 41 31 28z m60 -490 c13 -5
11 -12 -12 -40 -23 -29 -33 -34 -69 -34 -23 0 -44 4 -47 9 -23 37 74 86 128
65z m154 -126 c15 -15 16 -53 2 -79 -10 -17 -7 -19 20 -19 33 0 36 -6 15 -34
-19 -25 -65 -15 -65 15 0 12 -8 23 -19 26 -15 4 -20 14 -19 44 1 50 37 76 66
47z m-162 -34 c-14 -10 -23 -11 -30 -3 -8 7 -5 15 8 25 14 10 23 11 30 3 8 -7
5 -15 -8 -25z m116 -215 c12 -6 43 -11 69 -10 46 1 47 0 54 -35 5 -29 2 -41
-14 -58 -14 -15 -18 -25 -11 -32 15 -15 1 -44 -21 -44 -11 0 -22 6 -25 14 -4
11 -23 14 -74 13 -76 -2 -96 8 -86 46 5 20 75 117 84 117 2 0 13 -5 24 -11z
m98 -259 c0 -15 -38 -32 -45 -20 -3 5 -3 15 0 20 8 13 45 13 45 0z m58 -147
c-15 -19 -38 -16 -38 5 0 27 9 32 31 19 13 -8 15 -15 7 -24z m-58 2 c0 -8 -4
-15 -10 -15 -5 0 -10 7 -10 15 0 8 5 15 10 15 6 0 10 -7 10 -15z m205 -163
c25 -59 47 -114 48 -122 4 -35 -143 -78 -178 -52 -13 8 -65 154 -72 199 -4 25
0 34 21 48 31 21 107 44 122 38 7 -2 33 -52 59 -111z"/>
<path d="M13505 2921 c-3 -5 -1 -12 5 -16 5 -3 10 1 10 9 0 18 -6 21 -15 7z"/>
<path d="M11631 2658 l-1 -128 128 1 c75 0 117 4 102 8 -103 32 -190 119 -221
221 -4 15 -8 -27 -8 -102z"/>
<path d="M6817 2501 c-120 -6 -130 -8 -148 -30 -18 -22 -26 -83 -21 -161 0
-14 1 -183 2 -375 1 -330 2 -353 20 -383 l20 -32 92 -1 c159 -1 202 2 225 17
15 9 20 20 16 31 -4 10 -2 14 5 9 13 -8 17 501 4 522 -6 9 -31 12 -88 10 l-79
-3 -3 -60 c-2 -44 1 -62 12 -71 12 -8 16 -38 17 -145 1 -104 4 -128 12 -109
l10 25 4 -23 c5 -23 -32 -92 -48 -92 -6 0 -7 5 -4 10 3 6 -5 10 -19 10 -53 0
-51 -16 -49 363 l2 352 43 6 c24 3 48 4 54 2 6 -2 10 -26 10 -53 l-1 -48 40
-4 c87 -7 85 -9 85 101 0 85 -3 100 -20 116 -11 10 -28 15 -40 12 -11 -3 -18
-1 -14 4 3 5 2 8 -3 7 -4 -1 -66 -4 -136 -7z m200 -88 c-3 -10 -5 -2 -5 17 0
19 2 27 5 18 2 -10 2 -26 0 -35z m0 -775 c-3 -8 -6 -5 -6 6 -1 11 2 17 5 13 3
-3 4 -12 1 -19z"/>
<path d="M3547 2494 c-3 -4 -6 -224 -6 -489 -1 -390 2 -484 12 -488 22 -8 240
2 249 11 5 5 8 33 6 63 l-3 54 -55 3 -55 3 3 402 c1 221 0 412 -3 423 -4 20
-12 22 -73 23 -38 0 -72 -2 -75 -5z"/>
<path d="M3892 2485 c-13 -10 -21 -23 -18 -31 3 -8 1 -14 -5 -14 -6 0 -9 -149
-8 -425 3 -538 -11 -505 212 -505 142 0 166 9 185 64 18 56 13 889 -6 908 -9
9 -59 14 -175 16 -138 3 -165 1 -185 -13z m238 -167 c0 -5 -4 -7 -9 -3 -14 8
-13 -285 1 -302 7 -9 7 -13 0 -13 -14 0 -13 -286 0 -313 6 -12 5 -23 -3 -33
-13 -16 -44 -20 -34 -4 4 6 -10 10 -34 10 l-40 0 -3 323 c-2 177 0 333 3 347
8 35 75 46 102 17 9 -11 17 -23 17 -29z"/>
<path d="M4337 2492 c-22 -4 -23 -58 -3 -128 8 -27 19 -89 26 -139 6 -49 15
-106 20 -125 5 -19 13 -64 19 -100 6 -36 22 -126 35 -200 14 -74 28 -160 32
-190 10 -85 15 -90 89 -90 52 0 65 3 69 18 7 25 36 258 39 316 4 94 22 58 45
-91 37 -241 37 -241 80 -246 20 -3 50 -5 66 -4 27 2 30 6 43 62 8 33 18 91 22
130 5 38 18 115 29 170 30 147 64 344 68 390 2 22 8 60 14 85 20 82 28 130 19
124 -5 -3 -11 1 -14 8 -7 17 -115 24 -115 8 0 -6 -4 -9 -8 -6 -8 5 -37 -161
-69 -391 -10 -73 -21 -133 -25 -133 -5 0 -8 14 -8 30 0 41 -1 43 -10 55 -4 6
-8 25 -8 43 -1 50 -41 394 -47 400 -3 3 -79 3 -117 0 -12 -1 -18 -16 -23 -67
-3 -36 -15 -124 -25 -196 -10 -71 -17 -146 -16 -165 3 -42 -13 -95 -25 -83 -5
5 -18 80 -29 168 -11 88 -23 167 -26 175 -3 8 -7 33 -9 55 -1 22 -6 59 -9 82
l-7 41 -52 -2 c-29 0 -60 -2 -70 -4z"/>
<path d="M5291 2313 c2 -133 0 -194 -9 -210 -15 -26 -16 -107 -2 -133 6 -12
11 -109 11 -235 l1 -215 27 -1 c14 -1 87 -1 161 0 130 1 135 2 160 26 l25 25
0 209 c0 206 0 210 -23 234 -23 24 -23 26 -7 51 23 35 34 374 13 387 -11 7
-10 9 1 9 11 0 11 3 1 15 -7 9 -19 14 -26 11 -7 -3 -16 -1 -18 3 -3 5 -76 9
-161 10 l-156 1 2 -187z m224 -68 c1 -137 -1 -155 -18 -150 -7 2 -25 6 -40 9
l-28 7 2 122 c0 67 3 126 6 130 3 4 21 7 41 5 l37 -3 0 -120z m-10 -287 c2 -2
5 -73 7 -158 l3 -155 -40 0 -40 0 -3 149 c-3 160 2 179 45 171 14 -2 27 -5 28
-7z"/>
<path d="M5731 2380 c0 -63 -1 -276 -3 -472 -3 -331 -2 -359 15 -375 15 -16
35 -17 175 -15 86 2 164 5 172 7 40 12 42 33 45 464 2 229 1 430 -2 448 -6 35
-19 43 -77 50 -27 3 -44 -1 -57 -13 -17 -16 -19 -32 -18 -181 0 -110 4 -161
11 -157 6 4 6 -1 -1 -14 -8 -14 -9 -59 -3 -141 4 -67 5 -121 2 -121 -3 0 -6
-45 -7 -101 -3 -107 -6 -119 -29 -119 -9 0 -12 5 -8 11 4 8 -5 9 -32 5 l-39
-7 3 410 c4 408 4 409 -17 421 -12 6 -27 8 -33 4 -6 -4 -9 -3 -5 2 3 5 -17 9
-44 9 l-50 0 2 -115z"/>
<path d="M6200 2490 c-7 -4 -9 -74 -5 -196 2 -104 5 -316 6 -471 1 -155 5
-287 9 -293 5 -8 59 -12 170 -13 l163 0 24 27 c23 27 23 32 22 197 -1 111 -5
169 -12 169 -7 0 -7 4 1 12 9 9 12 82 12 269 0 234 -2 259 -18 279 -18 22 -25
23 -190 25 -95 0 -177 -2 -182 -5z m225 -124 c12 -11 15 -75 16 -338 2 -394 2
-398 -12 -398 -6 0 -9 7 -6 15 5 12 1 12 -21 4 -51 -20 -53 -8 -51 360 2 279
0 336 -12 340 -11 4 27 20 69 30 2 1 10 -5 17 -13z"/>
<path d="M7097 2483 c-3 -10 -5 -97 -5 -193 1 -115 -3 -183 -10 -197 -16 -28
-15 -126 0 -141 8 -8 11 -69 10 -214 -1 -140 2 -206 10 -215 9 -11 43 -14 162
-12 95 1 154 6 158 13 13 19 9 103 -5 114 -7 6 -49 12 -92 14 l-80 3 2 50 c1
28 2 96 2 153 l1 102 85 0 85 0 0 71 0 70 -84 -3 c-48 -2 -88 1 -93 7 -5 6 -7
50 -4 103 3 50 3 92 -1 92 -4 0 -2 14 3 30 l11 30 94 0 94 0 0 59 c0 33 -4 62
-9 66 -5 3 -81 8 -169 11 -149 5 -161 4 -165 -13z"/>
<path d="M7486 2481 c-3 -9 -2 -43 2 -76 l7 -60 50 0 50 0 1 -402 c1 -221 4
-409 7 -417 5 -12 20 -16 57 -16 98 0 91 -34 90 418 -2 436 -6 406 63 417 l37
6 0 69 c0 57 -3 70 -17 74 -10 3 -91 5 -180 5 -141 -1 -163 -4 -167 -18z"/>
<path d="M8250 2005 l0 -485 270 0 270 0 0 60 0 60 -207 2 -208 3 -3 423 -2
422 -60 0 -60 0 0 -485z"/>
<path d="M9060 2472 c-81 -27 -112 -46 -178 -107 -115 -106 -162 -212 -162
-366 0 -180 88 -332 244 -424 53 -31 178 -65 239 -65 72 0 180 31 251 72 l68
40 -44 45 -45 45 -64 -33 c-59 -31 -71 -33 -159 -34 -88 0 -101 3 -162 33 -71
35 -119 81 -164 158 -27 46 -29 55 -29 164 0 101 3 120 24 159 35 66 103 134
168 167 53 27 67 29 163 29 101 0 107 -1 164 -33 l59 -34 45 45 45 45 -48 31
c-87 55 -150 74 -260 78 -77 2 -113 -1 -155 -15z"/>
<path d="M9733 2460 c-68 -34 -106 -77 -134 -151 -33 -86 -18 -179 41 -251 31
-38 144 -101 200 -113 55 -11 144 -63 163 -94 28 -48 22 -104 -15 -147 -76
-86 -198 -85 -264 1 l-25 33 -55 -13 c-30 -7 -57 -15 -60 -18 -11 -11 37 -86
77 -121 123 -105 298 -98 412 16 77 78 99 195 53 286 -39 77 -101 122 -231
167 -140 48 -174 76 -182 147 -8 85 58 158 144 158 55 0 79 -12 119 -57 l31
-35 56 13 c67 14 71 27 28 86 -60 83 -136 123 -234 123 -51 0 -76 -6 -124 -30z"/>
<path d="M5730 570 l0 -140 25 0 c23 0 25 4 25 43 l1 42 37 -43 c23 -26 45
-42 60 -42 12 0 22 2 22 5 0 3 -16 27 -36 55 l-36 50 31 39 c37 46 38 51 10
51 -13 0 -36 -16 -55 -37 l-33 -38 -1 78 c0 75 -1 77 -25 77 l-25 0 0 -140z"/>
<path d="M5007 693 c-4 -3 -7 -64 -7 -135 l0 -128 25 0 25 0 0 135 c0 124 -1
135 -18 135 -10 0 -22 -3 -25 -7z"/>
<path d="M5148 673 c-10 -2 -18 -13 -18 -24 0 -10 -7 -19 -15 -19 -8 0 -15 -9
-15 -20 0 -11 7 -20 15 -20 12 0 15 -14 15 -64 0 -45 5 -69 16 -80 17 -18 79
-22 89 -6 9 15 -8 35 -30 35 -17 0 -20 8 -23 58 -3 55 -2 57 23 57 18 0 25 5
25 20 0 15 -7 20 -25 20 -20 0 -25 5 -25 25 0 25 -1 26 -32 18z"/>
<path d="M5388 673 c-10 -2 -18 -13 -18 -24 0 -10 -7 -19 -15 -19 -8 0 -15 -9
-15 -20 0 -11 7 -20 15 -20 12 0 15 -13 15 -58 0 -76 18 -102 70 -102 21 0 41
4 44 8 9 15 -13 36 -36 37 -21 0 -23 5 -26 58 l-3 57 31 0 c23 0 30 4 30 20 0
16 -7 20 -30 20 -25 0 -30 4 -30 25 0 25 -1 26 -32 18z"/>
<path d="M6448 673 c-10 -2 -18 -13 -18 -24 0 -10 -7 -19 -15 -19 -8 0 -15 -9
-15 -20 0 -11 7 -20 15 -20 12 0 15 -13 15 -58 0 -76 18 -102 70 -102 21 0 41
4 44 8 9 15 -13 36 -36 37 -21 0 -23 5 -26 58 l-3 57 31 0 c23 0 30 4 30 20 0
16 -7 20 -30 20 -25 0 -30 4 -30 25 0 25 -1 26 -32 18z"/>
<path d="M7218 673 c-10 -2 -18 -13 -18 -24 0 -10 -7 -19 -15 -19 -8 0 -15 -9
-15 -20 0 -11 7 -20 15 -20 11 0 15 -13 15 -52 0 -72 17 -102 59 -106 45 -5
60 3 54 26 -3 13 -11 18 -27 15 -26 -5 -36 16 -36 80 0 35 2 37 30 37 23 0 30
5 30 19 0 14 -8 21 -27 23 -20 2 -29 9 -31 26 -2 12 -6 21 -10 21 -4 -1 -15
-3 -24 -6z"/>
<path d="M7698 673 c-10 -2 -18 -13 -18 -24 0 -10 -7 -19 -15 -19 -8 0 -15 -9
-15 -20 0 -11 7 -20 15 -20 12 0 15 -13 15 -58 0 -76 18 -102 70 -102 21 0 41
4 44 8 9 15 -13 36 -36 37 -21 0 -23 5 -26 58 l-3 57 31 0 c23 0 30 4 30 20 0
16 -7 20 -30 20 -25 0 -30 4 -30 25 0 25 -1 26 -32 18z"/>
<path d="M8404 645 c-4 -10 -20 -15 -49 -15 -28 0 -47 -6 -58 -18 -20 -21 -22
-73 -5 -90 8 -8 8 -15 -2 -27 -7 -8 -10 -24 -7 -35 3 -10 -1 -24 -9 -31 -21
-17 -17 -57 6 -69 12 -6 43 -11 71 -12 62 0 99 22 99 60 0 43 -15 56 -70 62
-60 6 -70 22 -18 31 57 9 71 26 64 75 -3 28 -1 44 6 46 14 5 3 38 -12 38 -6 0
-13 -7 -16 -15z m-24 -64 c7 -15 6 -23 -6 -35 -8 -9 -17 -16 -19 -16 -2 0 -11
7 -19 16 -18 18 -6 54 19 54 8 0 19 -9 25 -19z m17 -167 c7 -18 -12 -34 -42
-34 -30 0 -49 16 -42 34 4 11 19 16 42 16 23 0 38 -5 42 -16z"/>
<path d="M5532 614 c-18 -12 -20 -19 -11 -30 8 -10 16 -11 29 -4 28 15 70 12
70 -5 0 -8 -17 -19 -42 -26 -24 -6 -49 -16 -55 -21 -16 -13 -17 -70 -1 -86 17
-17 73 -15 89 4 11 14 13 14 21 0 12 -21 68 -21 68 -1 0 9 -7 18 -15 21 -11 5
-15 22 -15 69 0 44 -5 68 -16 79 -20 21 -93 21 -122 0z m73 -140 c-23 -17 -47
-6 -43 19 4 30 52 41 56 13 2 -11 -4 -25 -13 -32z"/>
<path d="M5954 606 c-24 -20 -28 -31 -28 -76 0 -45 4 -56 28 -76 36 -31 105
-33 131 -4 14 16 16 23 7 32 -10 10 -17 10 -32 0 -36 -22 -80 -9 -80 25 0 9
18 13 65 13 65 0 65 0 65 29 0 15 -9 40 -21 55 -28 36 -95 37 -135 2z m87 -16
c34 -19 23 -40 -21 -40 -43 0 -55 20 -22 39 21 13 20 13 43 1z"/>
<path d="M6157 612 c-34 -37 -13 -83 45 -97 15 -4 32 -13 39 -21 17 -20 -16
-30 -54 -16 -23 9 -34 9 -45 0 -23 -19 21 -48 72 -48 49 0 62 7 75 41 13 36
-8 65 -59 80 -39 12 -53 33 -27 42 6 2 23 0 36 -5 30 -11 57 8 40 28 -17 21
-102 18 -122 -4z"/>
<path d="M6567 603 c4 -16 14 -59 23 -98 14 -64 18 -70 42 -73 24 -3 28 1 42
49 9 29 16 59 16 68 0 28 18 -3 34 -62 16 -53 19 -58 43 -55 24 3 28 10 49 98
13 52 23 96 24 98 0 1 -11 2 -23 2 -21 0 -26 -7 -39 -67 l-14 -68 -20 65 c-17
56 -23 65 -44 65 -20 0 -26 -8 -39 -57 -9 -31 -19 -59 -22 -62 -3 -3 -11 23
-18 59 -12 58 -16 65 -37 65 -22 0 -24 -3 -17 -27z"/>
<path d="M6894 606 c-24 -20 -28 -31 -28 -76 0 -68 32 -100 99 -100 36 0 47 5
69 31 39 46 33 121 -13 156 -28 22 -97 16 -127 -11z m110 -48 c20 -58 -28
-112 -70 -78 -17 15 -19 81 -2 98 22 22 62 10 72 -20z"/>
<path d="M7374 606 c-24 -20 -28 -31 -28 -76 0 -68 32 -100 99 -100 36 0 47 5
69 31 39 46 33 121 -13 156 -28 22 -97 16 -127 -11z m110 -48 c20 -58 -28
-112 -70 -78 -17 15 -19 81 -2 98 22 22 62 10 72 -20z"/>
<path d="M7848 619 c-20 -11 -24 -34 -7 -45 6 -3 16 -1 22 5 6 6 24 11 40 11
39 0 33 -32 -8 -40 -53 -11 -75 -28 -75 -60 0 -16 7 -36 16 -44 18 -19 75 -21
92 -4 9 9 15 9 24 0 20 -20 58 -15 58 7 0 10 -7 21 -15 25 -11 4 -15 21 -15
65 0 41 -5 65 -16 75 -18 18 -89 21 -116 5z m92 -108 c0 -21 -36 -52 -53 -46
-27 11 -21 42 11 53 28 10 42 7 42 -7z"/>
<path d="M8040 530 l0 -100 25 0 c23 0 25 3 26 53 2 83 10 102 44 102 l30 0 3
-77 c3 -75 4 -78 27 -78 25 0 25 1 25 88 0 55 -4 92 -12 100 -17 17 -78 15
-100 -5 -17 -15 -18 -15 -18 0 0 11 -8 17 -25 17 l-25 0 0 -100z"/>
<path d="M8505 605 c-20 -19 -25 -34 -25 -75 0 -69 29 -100 95 -100 66 0 95
31 95 100 0 69 -29 100 -95 100 -35 0 -52 -6 -70 -25z m103 -27 c7 -7 12 -28
12 -48 0 -41 -14 -60 -45 -60 -31 0 -45 19 -45 60 0 41 14 60 45 60 12 0 26
-5 33 -12z"/>
</g>
</svg>
